<svg width="77" height="358" fill="none" xmlns="http://www.w3.org/2000/svg"><path d="M60.5 93.5c0 25.791-2.572 49.124-6.722 65.995-2.076 8.439-4.54 15.234-7.258 19.906-2.738 4.708-5.634 7.099-8.52 7.099-2.886 0-5.782-2.391-8.52-7.099-2.718-4.672-5.182-11.467-7.258-19.906-4.15-16.871-6.722-40.204-6.722-65.995 0-25.791 2.572-49.124 6.722-65.995 2.076-8.44 4.54-15.234 7.258-19.906C32.218 2.891 35.114.5 38 .5c2.886 0 5.782 2.39 8.52 7.1 2.718 4.671 5.182 11.466 7.258 19.905C57.928 44.375 60.5 67.709 60.5 93.5zM65.5 283.5c0 20.528-3.128 39.091-8.169 52.504-2.521 6.708-5.511 12.101-8.806 15.809C45.23 355.522 41.672 357.5 38 357.5c-3.672 0-7.23-1.978-10.525-5.687-3.295-3.708-6.285-9.101-8.806-15.809-5.04-13.413-8.169-31.976-8.169-52.504s3.128-39.091 8.169-52.504c2.521-6.708 5.511-12.101 8.806-15.809C30.77 211.478 34.328 209.5 38 209.5c3.672 0 7.23 1.978 10.525 5.687 3.295 3.708 6.285 9.101 8.806 15.809 5.04 13.413 8.169 31.976 8.169 52.504z" fill="#373338" stroke="#373338"/><ellipse cx="38.5" cy="205.5" rx="20.5" ry="18.5" fill="#373338"/><ellipse cx="38.5" cy="25.5" rx="38.5" ry="2.5" fill="#373338"/><ellipse cx="38.5" cy="36.5" rx="38.5" ry="2.5" fill="#373338"/><ellipse cx="38.5" cy="47.5" rx="38.5" ry="2.5" fill="#373338"/><ellipse cx="38.5" cy="58.5" rx="38.5" ry="2.5" fill="#373338"/><ellipse cx="38.5" cy="69.5" rx="38.5" ry="2.5" fill="#373338"/><ellipse cx="38.5" cy="80.5" rx="38.5" ry="2.5" fill="#373338"/><ellipse cx="38.5" cy="91.5" rx="38.5" ry="2.5" fill="#373338"/><ellipse cx="38.5" cy="102.5" rx="38.5" ry="2.5" fill="#373338"/><ellipse cx="38.5" cy="113.5" rx="38.5" ry="2.5" fill="#373338"/><ellipse cx="38.5" cy="124.5" rx="38.5" ry="2.5" fill="#373338"/><ellipse cx="38.5" cy="135.5" rx="38.5" ry="2.5" fill="#373338"/><ellipse cx="38.5" cy="146.5" rx="38.5" ry="2.5" fill="#373338"/><ellipse cx="38.5" cy="157.5" rx="38.5" ry="2.5" fill="#373338"/><ellipse cx="38" cy="186" rx="13" ry="25" fill="#373338"/></svg>